<svg xmlns="http://www.w3.org/2000/svg" xmlns:xlink="http://www.w3.org/1999/xlink" version="1.0" x="0px" y="0px" viewBox="0 0 32 40" enable-background="new 0 0 32 32" xml:space="preserve"><g><rect x="6" width="4" height="4"/><rect x="22" width="4" height="4"/><path d="M30,2h-2v2c0,1.105-0.895,2-2,2h-4c-1.105,0-2-0.895-2-2V2h-8v2c0,1.105-0.895,2-2,2H6C4.895,6,4,5.105,4,4V2H2   C0.895,2,0,2.895,0,4v26c0,1.105,0.895,2,2,2h28c1.105,0,2-0.895,2-2V4C32,2.895,31.105,2,30,2z M14,24l-6-6l3-3l3,3l7-7l3,3L14,24   z"/></g><text x="0" y="47" fill="#000000" font-size="5px" font-weight="bold" font-family="'Helvetica Neue', Helvetica, Arial-Unicode, Arial, Sans-serif">Created by Zlatko Najdenovski</text><text x="0" y="52" fill="#000000" font-size="5px" font-weight="bold" font-family="'Helvetica Neue', Helvetica, Arial-Unicode, Arial, Sans-serif">from the Noun Project</text></svg>